<svg width="50" height="40" viewBox="0 0 50 40" fill="none" xmlns="http://www.w3.org/2000/svg">
<path d="M17.8814 0.364258C16.9355 0.364481 16 0.562063 15.1348 0.944374C14.2696 1.32669 13.4937 1.88531 12.8566 2.58455C12.2202 1.88725 11.4454 1.33023 10.5816 0.949028C9.71793 0.567823 8.78425 0.370792 7.84015 0.370502C4.0719 0.370502 1.00581 3.45879 0.996094 7.25411V18.9349H4.60407V7.25619C4.61379 5.46122 6.06114 4.00138 7.8353 4.00138C9.60945 4.00138 11.0568 5.45845 11.0568 7.25619V18.9349H14.6648V7.25203C14.6648 6.39634 15.0047 5.5757 15.6098 4.97064C16.2148 4.36558 17.0355 4.02566 17.8911 4.02566C18.7468 4.02566 19.5675 4.36558 20.1725 4.97064C20.7776 5.5757 21.1175 6.39634 21.1175 7.25203V18.9349H24.7255V7.2437C24.7158 3.45047 21.6497 0.364258 17.8814 0.364258Z" fill="white"/>
<path d="M25.2698 40C21.5799 40.0037 18.0394 38.5423 15.4263 35.9371C12.8133 33.3318 11.3413 29.7957 11.334 26.1058V25.8761H14.942V26.1058C14.9378 27.4964 15.2196 28.8729 15.7697 30.1501C16.3198 31.4272 17.1266 32.5776 18.1399 33.5299C20.2214 35.5025 22.9496 36.5037 25.8339 36.358C31.3201 36.0756 35.6171 31.4872 35.6171 25.9129V25.8748H39.225V25.9129C39.2264 33.4189 33.4252 39.5983 26.0192 39.9826C25.7659 39.9937 25.5182 40 25.2698 40Z" fill="white"/>
<path d="M39.9352 19.2604C34.6252 19.2604 30.3047 14.9398 30.3047 9.62984C30.3047 4.31986 34.6252 0 39.9352 0C45.2452 0 49.5651 4.31917 49.5651 9.62984C49.5651 14.9405 45.2452 19.2604 39.9352 19.2604ZM39.9352 3.62879C38.7481 3.62866 37.5877 3.98055 36.6006 4.63998C35.6135 5.29941 34.8441 6.23674 34.3898 7.33344C33.9354 8.43015 33.8165 9.63695 34.0481 10.8012C34.2796 11.9655 34.8513 13.035 35.6907 13.8744C36.5301 14.7138 37.5995 15.2854 38.7638 15.517C39.9281 15.7485 41.1349 15.6296 42.2316 15.1753C43.3283 14.7209 44.2656 13.9516 44.9251 12.9645C45.5845 11.9774 45.9364 10.8169 45.9363 9.62984C45.9344 8.03882 45.3016 6.5135 44.1766 5.38849C43.0516 4.26347 41.5262 3.63063 39.9352 3.62879V3.62879Z" fill="white"/>
</svg>
