<svg width="65" height="64" viewBox="0 0 65 64" fill="none" xmlns="http://www.w3.org/2000/svg">
<path fill-rule="evenodd" clip-rule="evenodd" d="M34.9976 56H38.9976V62L46.9976 56H58.9976C61.2067 56 62.9976 54.2091 62.9976 52V40C62.9976 37.7909 61.2067 36 58.9976 36H34.9976C32.7884 36 30.9976 37.7909 30.9976 40V52C30.9976 54.2091 32.7884 56 34.9976 56Z" stroke="#00D1C4" stroke-width="4" stroke-linecap="round" stroke-linejoin="round"/>
<path fill-rule="evenodd" clip-rule="evenodd" d="M14.2617 52C18.1277 52 21.2617 48.866 21.2617 45C21.2617 41.134 18.1277 38 14.2617 38C10.3957 38 7.26172 41.134 7.26172 45C7.26172 48.866 10.3957 52 14.2617 52Z" stroke="#00D1C4" stroke-width="4" stroke-linecap="round" stroke-linejoin="round"/>
<path d="M25.5331 62C23.8621 57.2082 19.3426 53.9979 14.2678 53.9979C9.19293 53.9979 4.67347 57.2082 3.00244 62" stroke="#00D1C4" stroke-width="4" stroke-linecap="round" stroke-linejoin="round"/>
<path fill-rule="evenodd" clip-rule="evenodd" d="M51.7305 18C55.5965 18 58.7305 14.866 58.7305 11C58.7305 7.13401 55.5965 4 51.7305 4C47.8645 4 44.7305 7.13401 44.7305 11C44.7305 14.866 47.8645 18 51.7305 18Z" stroke="#00D1C4" stroke-width="4" stroke-linecap="round" stroke-linejoin="round"/>
<path d="M62.9975 28C61.3264 23.2082 56.807 19.9979 51.7321 19.9979C46.6573 19.9979 42.1378 23.2082 40.4668 28" stroke="#00D1C4" stroke-width="4" stroke-linecap="round" stroke-linejoin="round"/>
<path d="M44.9976 42H54.9976" stroke="#00D1C4" stroke-width="4" stroke-linecap="round" stroke-linejoin="round"/>
<path d="M38.9976 48H54.9976" stroke="#00D1C4" stroke-width="4" stroke-linecap="round" stroke-linejoin="round"/>
<path fill-rule="evenodd" clip-rule="evenodd" d="M30.9976 22H26.9976V28L18.9976 22H6.99756C4.78842 22 2.99756 20.2091 2.99756 18V6C2.99756 3.79086 4.78842 2 6.99756 2H30.9976C33.2067 2 34.9976 3.79086 34.9976 6V18C34.9976 20.2091 33.2067 22 30.9976 22Z" stroke="#00D1C4" stroke-width="4" stroke-linecap="round" stroke-linejoin="round"/>
<path d="M20.9976 8H10.9976" stroke="#00D1C4" stroke-width="4" stroke-linecap="round" stroke-linejoin="round"/>
<path d="M26.9976 14H10.9976" stroke="#00D1C4" stroke-width="4" stroke-linecap="round" stroke-linejoin="round"/>
</svg>
