<svg id="SvgjsSvg1001" width="288" height="288" xmlns="http://www.w3.org/2000/svg" version="1.1" xmlns:xlink="http://www.w3.org/1999/xlink" xmlns:svgjs="http://svgjs.com/svgjs"><defs id="SvgjsDefs1002"></defs><g id="SvgjsG1008" transform="matrix(0.9167,0,0,0.9167,11.995199364471432,11.995200476646431)"><svg xmlns="http://www.w3.org/2000/svg" enable-background="new 0 0 120 120" viewBox="0 0 120 120" width="288" height="288"><rect width="30.1" height="11.4" x="45" y="98" fill="none" stroke="#2a1d43" class="fill-none stroke-primary colorStroke377dff svgStroke" stroke-linecap="round" stroke-linejoin="round" stroke-miterlimit="10" stroke-width="3" transform="rotate(-180 60 103.706)"></rect><polyline fill="none" stroke="#bdc5d1" stroke-linecap="round" stroke-linejoin="round" stroke-miterlimit="10" stroke-width="3" points="82.9 116.1 82.9 91.3 37.1 91.3 37.1 116.1" class="fill-none stroke-gray-400"></polyline><line x1="96.3" x2="23.7" y1="116.5" y2="116.5" fill="none" stroke="#2a1d43" class="fill-none stroke-primary colorStroke377dff svgStroke" stroke-linecap="round" stroke-linejoin="round" stroke-miterlimit="10" stroke-width="3"></line><polygon fill="#2a1d43" stroke="#2a1d43" stroke-linecap="round" stroke-linejoin="round" stroke-miterlimit="10" stroke-width="3" points="65 22 70.3 32.9 82.3 34.6 73.6 43 75.7 55 65 49.3 54.3 55 56.3 43 47.7 34.6 59.6 32.9" opacity=".5" class="fill-gray-400 stroke-gray-400 colorbdc5d1 svgShape colorStrokebdc5d1 svgStroke"></polygon><polygon fill="#2a1d43" stroke="#2a1d43" stroke-linecap="round" stroke-linejoin="round" stroke-miterlimit="10" stroke-width="3" points="60 17.1 65.3 27.9 77.3 29.7 68.7 38.1 70.7 50 60 44.4 49.3 50 51.3 38.1 42.7 29.7 54.7 27.9" class="fill-primary stroke-primary color377dff svgShape colorStroke377dff svgStroke"></polygon><polygon fill="#ffffff" points="60 26.3 62.4 31.1 67.7 31.8 63.8 35.5 64.7 40.8 60 38.3 55.3 40.8 56.2 35.5 52.3 31.8 57.6 31.1" class="fill-white colorfff svgShape"></polygon><path fill="none" stroke="#2a1d43" stroke-linecap="round" stroke-linejoin="round" stroke-miterlimit="10" stroke-width="3" d="M41.8,58.9c0.6,1,1.4,2.1,2.3,3.1" class="fill-none stroke-primary colorStroke377dff svgStroke"></path><path fill="none" stroke="#2a1d43" stroke-linecap="round" stroke-linejoin="round" stroke-miterlimit="10" stroke-width="3" d="M53.9,91.2v-1.9c0-5.5-2.6-10.6-7-13.9C36,67.1,24.7,53.6,24.7,32V3.5H94L93.9,32c0,18.4-10.8,35.4-21.9,43.5	c-4.5,3.3-7.2,8.5-7.2,14.1v1.6" class="fill-none stroke-gray-400 colorStrokebdc5d1 svgStroke"></path><path fill="none" stroke="#2a1d43" stroke-linecap="round" stroke-linejoin="round" stroke-miterlimit="10" stroke-width="3" d="M30.8 57.4c-20.3 0-29.6-16.8-29.6-37.4v-4.5c0-1.9 1.1-3.5 2.5-3.5h21M87.5 57.4c21.7 0 31.3-16.8 31.3-37.4v-4.5c0-1.9-1.1-3.5-2.5-3.5h-22" class="fill-none stroke-gray-400 colorStrokebdc5d1 svgStroke"></path><path fill="none" stroke="#2a1d43" stroke-linecap="round" stroke-linejoin="round" stroke-miterlimit="10" stroke-width="3" d="M33.6,32.2c0.3,6.6,1.6,13.2,4.1,19.1" class="fill-none stroke-primary colorStroke377dff svgStroke"></path></svg></g></svg>