<svg id="SvgjsSvg1018" width="288" height="288" xmlns="http://www.w3.org/2000/svg" version="1.1" xmlns:xlink="http://www.w3.org/1999/xlink" xmlns:svgjs="http://svgjs.com/svgjs"><defs id="SvgjsDefs1019"></defs><g id="SvgjsG1020"><svg xmlns="http://www.w3.org/2000/svg" enable-background="new 0 0 120 120" viewBox="0 0 120 120" width="288" height="288"><path fill="none" stroke="#58516c" stroke-linecap="round" stroke-linejoin="round" stroke-miterlimit="10" stroke-width="3" d="M27.8,37.1c0,1.5-1.3,2.8-2.8,2.8c-1.5,0-2.8-1.2-2.8-2.8c0-1.5,1.3-2.8,2.8-2.8C26.6,34.3,27.8,35.5,27.8,37.1	z" class="fill-none stroke-primary colorStroke377dff svgStroke"></path><path fill="none" stroke="#58516c" stroke-linecap="round" stroke-linejoin="round" stroke-miterlimit="10" stroke-width="3" d="M41 37.1c0 1.5-1.2 2.8-2.8 2.8-1.5 0-2.8-1.2-2.8-2.8 0-1.5 1.2-2.8 2.8-2.8C39.8 34.3 41 35.5 41 37.1zM54.2 37.1c0 1.5-1.3 2.8-2.8 2.8-1.5 0-2.8-1.2-2.8-2.8 0-1.5 1.3-2.8 2.8-2.8C53 34.3 54.2 35.5 54.2 37.1zM105.8 61.7c.8 1.4 1.4 2.9 1.9 4.5M76.8 48c9.7-1.8 19.3 1.7 25.4 8.6" opacity=".5" class="fill-none stroke-gray-400 colorStrokebdc5d1 svgStroke"></path><path fill="none" stroke="#58516c" stroke-linecap="round" stroke-linejoin="round" stroke-miterlimit="10" stroke-width="3" d="M72.2,41.2C74.6,23.3,62.6,6.4,44.6,3C26-0.6,8,11.7,4.5,30.3c-1.8,9.6,0.6,19,5.8,26.4L5.3,71.8l16.1-5.2
	c3.2,1.8,6.7,3.1,10.4,3.8c5.5,1,10.9,0.7,15.9-0.8" opacity=".5" class="fill-none stroke-gray-400 colorStrokebdc5d1 svgStroke"></path><path fill="#58516c" d="M74.3,50.5c18.6-3.5,36.6,8.7,40.1,27.3c1.8,9.6-0.6,19-5.8,26.4l5.1,15.1l-16.1-5.2c-3.2,1.8-6.7,3.1-10.4,3.8
	c-18.6,3.5-36.6-8.7-40.1-27.3C43.4,72,55.7,54.1,74.3,50.5z" opacity=".5" class="fill-gray-400 colorbdc5d1 svgShape"></path><path fill="#58516c" d="M75.4,40.4c18.6-3.5,36.6,8.7,40.1,27.3c1.8,9.6-0.6,19-5.8,26.4l5.1,15.1l-16.1-5.2c-3.2,1.8-6.7,3.1-10.4,3.8
	c-18.6,3.5-36.6-8.7-40.1-27.3C44.5,61.9,56.8,44,75.4,40.4z" class="fill-primary color377dff svgShape"></path><circle cx="95" cy="74.5" r="2.8" fill="none" stroke="#58516c" stroke-linecap="round" stroke-linejoin="round" stroke-miterlimit="10" class="fill-none stroke-white colorStrokefff svgStroke" stroke-width="3" opacity=".5"></circle><circle cx="81.8" cy="74.5" r="2.8" fill="none" stroke="#58516c" stroke-linecap="round" stroke-linejoin="round" stroke-miterlimit="10" class="fill-none stroke-white colorStrokefff svgStroke" stroke-width="3" opacity=".5"></circle><circle cx="68.6" cy="74.5" r="2.8" fill="none" stroke="#58516c" stroke-linecap="round" stroke-linejoin="round" stroke-miterlimit="10" stroke-width="3" class="fill-none stroke-white colorStrokefff svgStroke"></circle></svg></g></svg>