<svg id="SvgjsSvg1020" width="288" height="288" xmlns="http://www.w3.org/2000/svg" version="1.1" xmlns:xlink="http://www.w3.org/1999/xlink" xmlns:svgjs="http://svgjs.com/svgjs"><defs id="SvgjsDefs1021"></defs><g id="SvgjsG1022"><svg xmlns="http://www.w3.org/2000/svg" enable-background="new 0 0 120 120" viewBox="0 0 120 120" width="288" height="288"><polygon fill="#bdc5d1" points="119.2 47.9 103.5 26.8 96.3 17.2 96.3 17.2 71.9 14.6 66.7 14.1 66.7 14.1 66.7 14.1 66.7 14.1 66.7 14.1 66.7 14.1 66.7 14.1 64.3 14.3 37.1 17.2 14.2 47.9 14.2 47.9 14.2 47.9 66.7 109.1 119.2 47.9" opacity=".3" class="fill-gray-400 colorbdc5d1 svgShape"></polygon><path fill="#ffffff" stroke="#2a1d43" stroke-linecap="round" stroke-linejoin="round" stroke-miterlimit="10" stroke-width="3" d="M25.7,14.1L55.3,11l29.6,3.1l22.9,30.7l-52.5,61.1L2.8,44.8L25.7,14.1z" class="fill-white stroke-gray-400 colorfff svgShape colorStrokebdc5d1 svgStroke"></path><g transform="translate(59 85)" fill="#2a1d43" class="color000 svgShape"><polygon fill="#ffffff" points="-3.7 -73.3 -32 -70.3 -33.6 -40.9" class="fill-white colorfff svgShape"></polygon><polygon fill="#ffffff" points="-3.7 -73.3 24.5 -70.3 26.1 -40.9" class="fill-white colorfff svgShape"></polygon><polygon fill="#2a1d43" points="46.4 -40.9 24.5 -70.3 26.1 -40.9" class="fill-primary color377dff svgShape"></polygon><polygon fill="#2a1d43" points="-53.9 -40.9 -32 -70.3 -33.6 -40.9" class="fill-primary color377dff svgShape"></polygon><polygon fill="#2a1d43" points="-3.7 -73.3 -33.6 -40.9 26.1 -40.9" class="fill-primary color377dff svgShape"></polygon></g><line x1="27" x2="40.2" y1="56.8" y2="72.6" fill="none" stroke="#2a1d43" class="fill-none stroke-primary colorStroke377dff svgStroke" stroke-linecap="round" stroke-linejoin="round" stroke-miterlimit="10" stroke-width="3"></line><line x1="44.4" x2="48" y1="77.6" y2="82" fill="none" stroke="#2a1d43" class="fill-none stroke-primary colorStroke377dff svgStroke" stroke-linecap="round" stroke-linejoin="round" stroke-miterlimit="10" stroke-width="3"></line></svg></g></svg>