<svg width="64" height="64" viewBox="0 0 64 64" fill="none" xmlns="http://www.w3.org/2000/svg">
<path d="M12.5787 35.0721L2 48.0001L12 50.0001L16 62.0001L26.64 45.1147" stroke="#00D1C4" stroke-width="4" stroke-linecap="round" stroke-linejoin="round"/>
<path d="M51.4214 35.0721L62.0001 48.0001L52.0001 50.0001L48.0001 62.0001L37.3601 45.1147" stroke="#00D1C4" stroke-width="4" stroke-linecap="round" stroke-linejoin="round"/>
<path fill-rule="evenodd" clip-rule="evenodd" d="M33.2557 2.44273L38.1811 6.40006L44.4984 6.0854C45.4374 6.03891 46.2819 6.65265 46.5277 7.56006L48.1811 13.6641L53.4771 17.1307C54.2702 17.647 54.5929 18.6485 54.2504 19.5307L51.9997 25.4321L54.2504 31.3414C54.5868 32.2198 54.2647 33.2138 53.4771 33.7281L48.1811 37.1947L46.5277 43.3014C46.2819 44.2088 45.4374 44.8225 44.4984 44.7761L38.1811 44.4614L33.2557 48.4294C32.5221 49.0188 31.4773 49.0188 30.7437 48.4294L25.8184 44.4534L19.5011 44.7681C18.5621 44.8146 17.7175 44.2008 17.4717 43.2934L15.8184 37.1867L10.5224 33.7201C9.73481 33.2058 9.41272 32.2118 9.74907 31.3334L11.9997 25.4321L9.74907 19.5201C9.40656 18.6379 9.72927 17.6363 10.5224 17.1201L15.8184 13.6534L17.4717 7.5494C17.7175 6.64199 18.5621 6.02824 19.5011 6.07473L25.8184 6.40006L30.7437 2.44273C31.4773 1.85332 32.5221 1.85332 33.2557 2.44273Z" stroke="#00D1C4" stroke-width="4" stroke-linecap="round" stroke-linejoin="round"/>
<path fill-rule="evenodd" clip-rule="evenodd" d="M32.0003 38L21.7736 27.3334C19.9303 25.4918 19.4736 22.6766 20.6403 20.3467V20.3467C21.5099 18.6069 23.163 17.3911 25.0829 17.0794C27.0028 16.7677 28.9556 17.398 30.331 18.7734L32.0003 20.4427L33.6696 18.7734C35.045 17.398 36.9978 16.7677 38.9177 17.0794C40.8377 17.3911 42.4907 18.6069 43.3603 20.3467V20.3467C44.5257 22.6759 44.0691 25.4896 42.227 27.3307L32.0003 38Z" stroke="#00D1C4" stroke-width="4" stroke-linecap="round" stroke-linejoin="round"/>
</svg>
