<svg width="65" height="64" viewBox="0 0 65 64" fill="none" xmlns="http://www.w3.org/2000/svg">
<path fill-rule="evenodd" clip-rule="evenodd" d="M12.9973 54C16.8633 54 19.9973 50.866 19.9973 47C19.9973 43.134 16.8633 40 12.9973 40C9.13132 40 5.99731 43.134 5.99731 47C5.99731 50.866 9.13132 54 12.9973 54Z" stroke="#00D1C4" stroke-width="4" stroke-linecap="round" stroke-linejoin="round"/>
<path d="M22.9973 62C21.0277 58.3069 17.1829 56 12.9973 56C8.81178 56 4.96698 58.3069 2.99731 62" stroke="#00D1C4" stroke-width="4" stroke-linecap="round" stroke-linejoin="round"/>
<path fill-rule="evenodd" clip-rule="evenodd" d="M52.9973 54C56.8633 54 59.9973 50.866 59.9973 47C59.9973 43.134 56.8633 40 52.9973 40C49.1313 40 45.9973 43.134 45.9973 47C45.9973 50.866 49.1313 54 52.9973 54Z" stroke="#00D1C4" stroke-width="4" stroke-linecap="round" stroke-linejoin="round"/>
<path d="M62.9973 62C61.0277 58.3069 57.1829 56 52.9973 56C48.8118 56 44.967 58.3069 42.9973 62" stroke="#00D1C4" stroke-width="4" stroke-linecap="round" stroke-linejoin="round"/>
<path fill-rule="evenodd" clip-rule="evenodd" d="M32.9973 16C36.8633 16 39.9973 12.866 39.9973 9C39.9973 5.13401 36.8633 2 32.9973 2C29.1313 2 25.9973 5.13401 25.9973 9C25.9973 12.866 29.1313 16 32.9973 16Z" stroke="#00D1C4" stroke-width="4" stroke-linecap="round" stroke-linejoin="round"/>
<path d="M41.6615 22C39.4985 19.4605 36.3306 17.9974 32.9948 17.9974C29.659 17.9974 26.491 19.4605 24.3281 22" stroke="#00D1C4" stroke-width="4" stroke-linecap="round" stroke-linejoin="round"/>
<path d="M25.1335 52.5521C30.2408 54.4992 35.8889 54.4821 40.9842 52.5041" stroke="#00D1C4" stroke-width="4" stroke-linecap="round" stroke-linejoin="round"/>
<path d="M17.9282 16C13.5031 20.1445 10.9929 25.9371 10.9949 32C10.9949 32.6747 11.0349 33.3333 11.0962 34" stroke="#00D1C4" stroke-width="4" stroke-linecap="round" stroke-linejoin="round"/>
<path d="M54.8957 34C54.9544 33.3387 54.9971 32.6667 54.9971 32C55 25.9369 52.4896 20.1439 48.0637 16" stroke="#00D1C4" stroke-width="4" stroke-linecap="round" stroke-linejoin="round"/>
</svg>
